<svg width="427" height="41" viewBox="0 0 427 41" fill="none" xmlns="http://www.w3.org/2000/svg">
<path d="M15.6541 0.807588C19.8277 0.807588 23.4749 1.63479 26.5957 3.28919C29.7165 4.94359 32.1229 7.27479 33.8149 10.2828C35.5445 13.2532 36.4093 16.6936 36.4093 20.604C36.4093 24.4768 35.5445 27.9172 33.8149 30.9252C32.1229 33.9332 29.6977 36.2644 26.5393 37.9188C23.4185 39.5732 19.7901 40.4004 15.6541 40.4004H0.820912V0.807588H15.6541ZM15.0337 32.0532C18.6809 32.0532 21.5197 31.0568 23.5501 29.064C25.5805 27.0712 26.5957 24.2512 26.5957 20.604C26.5957 16.9568 25.5805 14.118 23.5501 12.0876C21.5197 10.0572 18.6809 9.04199 15.0337 9.04199H10.4653V32.0532H15.0337ZM51.4434 0.807588V40.4004H41.799V0.807588H51.4434ZM93.8518 40.4004H84.2074L68.077 15.9792V40.4004H58.4326V0.807588H68.077L84.2074 25.3416V0.807588H93.8518V40.4004ZM110.487 8.53439V16.5432H123.403V23.988H110.487V32.6736H125.095V40.4004H100.843V0.807588H125.095V8.53439H110.487ZM141 8.53439V16.5432H153.916V23.988H141V32.6736H155.608V40.4004H131.356V0.807588H155.608V8.53439H141ZM186.516 33.4068H171.739L169.371 40.4004H159.275L173.601 0.807588H184.768L199.093 40.4004H188.885L186.516 33.4068ZM184.035 25.962L179.128 11.4672L174.277 25.962H184.035ZM217.779 40.7952C214.884 40.7952 212.289 40.3252 209.996 39.3852C207.702 38.4452 205.86 37.054 204.469 35.2116C203.115 33.3692 202.401 31.1508 202.325 28.5564H212.59C212.741 30.0228 213.248 31.1508 214.113 31.9404C214.978 32.6924 216.106 33.0684 217.497 33.0684C218.926 33.0684 220.054 32.7488 220.881 32.1096C221.708 31.4328 222.122 30.5116 222.122 29.346C222.122 28.3684 221.783 27.56 221.107 26.9208C220.467 26.2816 219.659 25.7552 218.681 25.3416C217.741 24.928 216.388 24.458 214.621 23.9316C212.064 23.142 209.977 22.3524 208.36 21.5628C206.743 20.7732 205.352 19.6076 204.187 18.066C203.021 16.5244 202.438 14.5128 202.438 12.0312C202.438 8.34639 203.773 5.46999 206.443 3.40199C209.112 1.29639 212.59 0.243589 216.877 0.243589C221.238 0.243589 224.754 1.29639 227.423 3.40199C230.093 5.46999 231.522 8.36519 231.71 12.0876H221.276C221.201 10.8092 220.731 9.81279 219.866 9.09839C219.001 8.34639 217.892 7.97039 216.538 7.97039C215.373 7.97039 214.433 8.28999 213.718 8.92919C213.004 9.53079 212.647 10.4144 212.647 11.58C212.647 12.8584 213.248 13.8548 214.451 14.5692C215.655 15.2836 217.535 16.0544 220.091 16.8816C222.648 17.7464 224.716 18.5736 226.295 19.3632C227.912 20.1528 229.303 21.2996 230.469 22.8036C231.635 24.3076 232.217 26.244 232.217 28.6128C232.217 30.8688 231.635 32.918 230.469 34.7604C229.341 36.6028 227.687 38.0692 225.506 39.1596C223.325 40.25 220.749 40.7952 217.779 40.7952ZM247.797 8.53439V16.5432H260.713V23.988H247.797V32.6736H262.405V40.4004H238.153V0.807588H262.405V8.53439H247.797ZM304.588 20.0964C306.881 20.5852 308.724 21.732 310.115 23.5368C311.506 25.304 312.202 27.3344 312.202 29.628C312.202 32.9368 311.036 35.5688 308.705 37.524C306.411 39.4416 303.197 40.4004 299.061 40.4004H280.618V0.807588H298.44C302.463 0.807588 305.603 1.72879 307.859 3.57119C310.153 5.41359 311.299 7.91399 311.299 11.0724C311.299 13.4036 310.679 15.34 309.438 16.8816C308.235 18.4232 306.618 19.4948 304.588 20.0964ZM290.262 16.8252H296.579C298.158 16.8252 299.361 16.4868 300.189 15.81C301.053 15.0956 301.486 14.0616 301.486 12.708C301.486 11.3544 301.053 10.3204 300.189 9.60599C299.361 8.89159 298.158 8.53439 296.579 8.53439H290.262V16.8252ZM297.369 32.6172C298.985 32.6172 300.226 32.26 301.091 31.5456C301.993 30.7936 302.445 29.722 302.445 28.3308C302.445 26.9396 301.975 25.8492 301.035 25.0596C300.132 24.27 298.873 23.8752 297.256 23.8752H290.262V32.6172H297.369ZM327.44 32.9556H340.074V40.4004H317.796V0.807588H327.44V32.9556ZM363.398 40.7952C359.676 40.7952 356.254 39.9304 353.134 38.2008C350.05 36.4712 347.588 34.0648 345.745 30.9816C343.94 27.8608 343.038 24.364 343.038 20.4912C343.038 16.6184 343.94 13.1404 345.745 10.0572C347.588 6.97399 350.05 4.56759 353.134 2.83799C356.254 1.10839 359.676 0.243589 363.398 0.243589C367.121 0.243589 370.524 1.10839 373.607 2.83799C376.728 4.56759 379.172 6.97399 380.939 10.0572C382.744 13.1404 383.646 16.6184 383.646 20.4912C383.646 24.364 382.744 27.8608 380.939 30.9816C379.134 34.0648 376.69 36.4712 373.607 38.2008C370.524 39.9304 367.121 40.7952 363.398 40.7952ZM363.398 31.9968C366.557 31.9968 369.076 30.944 370.956 28.8384C372.874 26.7328 373.832 23.9504 373.832 20.4912C373.832 16.9944 372.874 14.212 370.956 12.144C369.076 10.0384 366.557 8.98559 363.398 8.98559C360.202 8.98559 357.646 10.0196 355.728 12.0876C353.848 14.1556 352.908 16.9568 352.908 20.4912C352.908 23.988 353.848 26.7892 355.728 28.8948C357.646 30.9628 360.202 31.9968 363.398 31.9968ZM415.294 13.3284C414.58 12.0124 413.546 11.016 412.192 10.3392C410.876 9.62479 409.316 9.26759 407.511 9.26759C404.39 9.26759 401.89 10.3016 400.01 12.3696C398.13 14.4 397.19 17.126 397.19 20.5476C397.19 24.1948 398.167 27.0524 400.122 29.1204C402.115 31.1508 404.841 32.166 408.3 32.166C410.669 32.166 412.662 31.5644 414.279 30.3612C415.933 29.158 417.136 27.4284 417.888 25.1724H405.65V18.066H426.63V27.0336C425.916 29.44 424.694 31.6772 422.964 33.7452C421.272 35.8132 419.11 37.4864 416.478 38.7648C413.846 40.0432 410.876 40.6824 407.567 40.6824C403.657 40.6824 400.16 39.8364 397.077 38.1444C394.031 36.4148 391.644 34.0272 389.914 30.9816C388.222 27.936 387.376 24.458 387.376 20.5476C387.376 16.6372 388.222 13.1592 389.914 10.1136C391.644 7.03039 394.031 4.64279 397.077 2.95079C400.122 1.22119 403.6 0.356387 407.511 0.356387C412.248 0.356387 416.234 1.50319 419.468 3.79679C422.739 6.09039 424.901 9.26759 425.954 13.3284H415.294Z" fill="black"/>
</svg>
